<?xml version="1.0" encoding="UTF-8" standalone="no"?>
<!-- Created with Inkscape (http://www.inkscape.org/) -->

<svg
   version="1.1"
   id="svg1"
   width="37.794666"
   height="37.794666"
   viewBox="0 0 37.794666 37.794666"
   xmlns="http://www.w3.org/2000/svg"
   xmlns:svg="http://www.w3.org/2000/svg">
  <defs
     id="defs1" />
  <g
     id="g1">
    <path
       id="path1"
       d="m 131.81247,0 v -1.4174 h 28.34682 V 0 Z"
       style="fill:#389826;fill-opacity:1;fill-rule:nonzero;stroke:none"
       transform="matrix(1.3333333,0,0,-1.3333333,-175.748,0)" />
    <path
       id="path2"
       d="m 141.73404,0 v -28.3468 h 1.41742 V 0 Z"
       style="fill:#389826;fill-opacity:1;fill-rule:nonzero;stroke:none"
       transform="matrix(1.3333333,0,0,-1.3333333,-175.748,0)" />
    <path
       id="path3"
       d="m 131.81247,-5.66927 v -1.41742 h 28.34682 v 1.41742 z"
       style="fill:#4063d8;fill-opacity:1;fill-rule:nonzero;stroke:none"
       transform="matrix(1.3333333,0,0,-1.3333333,-175.748,0)" />
    <path
       id="path4"
       d="m 155.90744,0 v -28.3468 h 1.41743 V 0 Z"
       style="fill:#4063d8;fill-opacity:1;fill-rule:nonzero;stroke:none"
       transform="matrix(1.3333333,0,0,-1.3333333,-175.748,0)" />
    <path
       id="path5"
       d="m 131.81247,-21.2601 v -1.41742 h 28.34682 v 1.41742 z"
       style="fill:#9559b2;fill-opacity:1;fill-rule:nonzero;stroke:none"
       transform="matrix(1.3333333,0,0,-1.3333333,-175.748,0)" />
    <path
       id="path6"
       d="m 151.6556,0 v -28.3468 h 1.41699 V 0 Z"
       style="fill:#9559b2;fill-opacity:1;fill-rule:nonzero;stroke:none"
       transform="matrix(1.3333333,0,0,-1.3333333,-175.748,0)" />
    <path
       id="path7"
       d="m 141.73404,0 v -1.4174 h 1.41742 V 0 Z"
       style="fill:#c43c33;fill-opacity:1;fill-rule:nonzero;stroke:none"
       transform="matrix(1.3333333,0,0,-1.3333333,-175.748,0)" />
    <path
       id="path8"
       d="m 155.90744,0 v -1.4174 h 1.41743 V 0 Z"
       style="fill:#c43c33;fill-opacity:1;fill-rule:nonzero;stroke:none"
       transform="matrix(1.3333333,0,0,-1.3333333,-175.748,0)" />
    <path
       id="path9"
       d="m 151.6556,0 v -1.4174 h 1.41699 V 0 Z"
       style="fill:#c43c33;fill-opacity:1;fill-rule:nonzero;stroke:none"
       transform="matrix(1.3333333,0,0,-1.3333333,-175.748,0)" />
    <path
       id="path10"
       d="m 141.73404,-5.66927 v -1.41742 h 1.41742 v 1.41742 z"
       style="fill:#c43c33;fill-opacity:1;fill-rule:nonzero;stroke:none"
       transform="matrix(1.3333333,0,0,-1.3333333,-175.748,0)" />
    <path
       id="path11"
       d="m 155.90744,-5.66927 v -1.41742 h 1.41743 v 1.41742 z"
       style="fill:#c43c33;fill-opacity:1;fill-rule:nonzero;stroke:none"
       transform="matrix(1.3333333,0,0,-1.3333333,-175.748,0)" />
    <path
       id="path12"
       d="m 151.6556,-5.66927 v -1.41742 h 1.41699 v 1.41742 z"
       style="fill:#c43c33;fill-opacity:1;fill-rule:nonzero;stroke:none"
       transform="matrix(1.3333333,0,0,-1.3333333,-175.748,0)" />
    <path
       id="path13"
       d="m 141.73404,-21.2601 v -1.41742 h 1.41742 v 1.41742 z"
       style="fill:#c43c33;fill-opacity:1;fill-rule:nonzero;stroke:none"
       transform="matrix(1.3333333,0,0,-1.3333333,-175.748,0)" />
    <path
       id="path14"
       d="m 155.90744,-21.2601 v -1.41742 h 1.41743 v 1.41742 z"
       style="fill:#c43c33;fill-opacity:1;fill-rule:nonzero;stroke:none"
       transform="matrix(1.3333333,0,0,-1.3333333,-175.748,0)" />
    <path
       id="path15"
       d="m 151.6556,-21.2601 v -1.41742 h 1.41699 v 1.41742 z"
       style="fill:#c43c33;fill-opacity:1;fill-rule:nonzero;stroke:none"
       transform="matrix(1.3333333,0,0,-1.3333333,-175.748,0)" />
  </g>
</svg>
